HIERARCHY
ROOT pelvis
{
	OFFSET 0.000000 0.727022 -0.000000
	CHANNELS 6 Xposition Yposition Zposition Xrotation Yrotation Zrotation
	JOINT spine
	{
		OFFSET 0.000000 0.000000 0.000000
		CHANNELS 6 Xposition Yposition Zposition Xrotation Yrotation Zrotation
		JOINT spine.001
		{
			OFFSET 0.000000 0.207059 0.010851
			CHANNELS 3 Xrotation Yrotation Zrotation
			JOINT neck
			{
				OFFSET 0.000000 0.205797 -0.025269
				CHANNELS 6 Xposition Yposition Zposition Xrotation Yrotation Zrotation
				JOINT face
				{
					OFFSET 0.000000 0.159761 -0.002789
					CHANNELS 6 Xposition Yposition Zposition Xrotation Yrotation Zrotation
					End Site
					{
						OFFSET 0.000000 -0.006953 0.017303
					}
				}
			}
			JOINT shoulder.L
			{
				OFFSET 0.000000 0.205797 -0.025269
				CHANNELS 6 Xposition Yposition Zposition Yrotation Xrotation Zrotation
				JOINT upper_arm.L
				{
					OFFSET 0.137806 0.000000 0.000000
					CHANNELS 6 Xposition Yposition Zposition Xrotation Yrotation Zrotation
					JOINT forearm.L
					{
						OFFSET 0.219414 0.000841 -0.000101
						CHANNELS 6 Xposition Yposition Zposition Xrotation Yrotation Zrotation
						End Site
						{
							OFFSET 0.205039 -0.001158 0.003486
						}
					}
				}
			}
			JOINT shoulder.R
			{
				OFFSET 0.000000 0.205797 -0.025269
				CHANNELS 6 Xposition Yposition Zposition Yrotation Xrotation Zrotation
				JOINT upper_arm.R
				{
					OFFSET -0.137806 0.000000 0.000000
					CHANNELS 6 Xposition Yposition Zposition Xrotation Yrotation Zrotation
					JOINT forearm.R
					{
						OFFSET -0.215908 0.000841 -0.000101
						CHANNELS 6 Xposition Yposition Zposition Xrotation Yrotation Zrotation
						End Site
						{
							OFFSET -0.209494 -0.001159 0.003564
						}
					}
				}
			}
		}
	}
	JOINT pelvis.L
	{
		OFFSET 0.000000 0.000000 0.000000
		CHANNELS 6 Xposition Yposition Zposition Yrotation Xrotation Zrotation
		End Site
		{
			OFFSET 0.089911 0.000000 0.000000
		}
	}
	JOINT pelvis.R
	{
		OFFSET 0.000000 0.000000 0.000000
		CHANNELS 6 Xposition Yposition Zposition Yrotation Xrotation Zrotation
		End Site
		{
			OFFSET -0.089911 0.000000 0.000000
		}
	}
	JOINT thigh.L
	{
		OFFSET 0.089911 0.000000 0.000000
		CHANNELS 6 Xposition Yposition Zposition Xrotation Yrotation Zrotation
		JOINT shin.L
		{
			OFFSET 0.019079 -0.364056 0.000000
			CHANNELS 6 Xposition Yposition Zposition Xrotation Yrotation Zrotation
			JOINT foot.L
			{
				OFFSET 0.016153 -0.308217 0.000000
				CHANNELS 6 Xposition Yposition Zposition Xrotation Yrotation Zrotation
				End Site
				{
					OFFSET 0.012549 -0.053728 0.127950
				}
			}
		}
	}
	JOINT thigh.R
	{
		OFFSET -0.089911 0.000000 0.000000
		CHANNELS 6 Xposition Yposition Zposition Xrotation Yrotation Zrotation
		JOINT shin.R
		{
			OFFSET -0.019310 -0.368456 0.000000
			CHANNELS 6 Xposition Yposition Zposition Xrotation Yrotation Zrotation
			JOINT foot.R
			{
				OFFSET -0.015935 -0.304053 0.000000
				CHANNELS 6 Xposition Yposition Zposition Xrotation Yrotation Zrotation
				End Site
				{
					OFFSET -0.012210 -0.052277 0.124494
				}
			}
		}
	}
}
MOTION
Frames: 7
Frame Time: 0.041667
-0.007594 0.014289 0.019517 0.000000 -5.952622 0.000001 -0.000000 0.000000 -0.000000 1.682937 0.005673 -0.150515 10.000166 -0.368504 0.045244 -0.000000 0.205797 -0.025269 15.743659 -18.349611 7.022093 -0.000000 0.159761 -0.002789 -3.739391 -0.000003 0.000000 0.000000 0.205798 -0.025269 -0.055702 -0.000222 -0.454038 0.137807 -0.000000 0.000000 5.521492 15.331297 -39.986393 0.219414 0.000841 -0.000101 -24.620008 -19.586903 -108.182642 0.000000 0.205797 -0.025269 -0.062394 -0.000274 -0.508506 -0.137806 -0.000000 0.000000 0.989167 -3.029352 37.223947 -0.215908 0.000841 -0.000101 -26.787753 19.221320 113.981903 0.000000 0.000000 0.000000 -0.000064 -0.000000 -0.332200 0.000000 0.000000 0.000000 0.000000 -0.000000 -0.332238 0.089910 -0.000521 0.000000 8.730268 -0.031756 -6.415861 0.019079 -0.364056 0.000000 -6.250310 -0.738718 7.468028 0.016153 -0.308217 0.000000 0.908703 -0.571307 -0.323582 -0.089910 0.000521 0.000000 6.740772 -0.004514 5.923222 -0.019310 -0.368456 0.000000 -5.455896 0.587674 -6.286686 -0.015935 -0.304053 0.000000 -1.256156 6.443324 2.682681 
-0.007603 0.014260 0.019572 0.000000 -5.964458 0.000001 -0.000000 0.000000 0.000000 1.588411 0.004257 -0.110520 10.000234 -0.520316 0.063890 0.000000 0.205797 -0.025269 15.863246 -18.620680 7.002180 0.000000 0.159761 -0.002789 -3.663526 0.000009 0.000006 -0.000000 0.205797 -0.025269 -0.058113 -0.000239 -0.473152 0.137807 0.000000 0.000000 5.519235 15.490391 -39.590539 0.219414 0.000841 -0.000101 -24.252356 -19.240510 -108.438795 -0.000000 0.205797 -0.025269 -0.064813 -0.000291 -0.527620 -0.137807 -0.000000 -0.000000 0.802947 -2.446937 37.546793 -0.215908 0.000841 -0.000101 -26.911377 19.384996 113.729473 0.000000 0.000000 0.000000 -0.000047 -0.000000 -0.305726 0.000000 0.000000 0.000000 0.000000 -0.000000 -0.305688 0.089910 -0.000480 0.000000 8.731979 -0.031740 -6.415647 0.019079 -0.364056 0.000000 -6.243178 -0.737256 7.456914 0.016153 -0.308217 0.000000 0.854522 -0.513274 -0.294721 -0.089910 0.000480 -0.000000 6.741903 -0.004624 5.921390 -0.019310 -0.368456 0.000000 -5.451394 0.586736 -6.277186 -0.015935 -0.304053 0.000000 -1.263100 6.475424 2.696551 
-0.007635 0.014169 0.019593 0.000000 -5.962599 0.000001 -0.000000 -0.000000 -0.000000 1.445171 0.002194 -0.055214 10.000670 -0.807467 0.099154 0.000000 0.205797 -0.025269 16.098565 -18.531785 6.835189 0.000000 0.159760 -0.002789 -3.698746 -0.000018 0.000012 0.000000 0.205797 -0.025269 -0.061662 -0.000272 -0.501979 0.137807 -0.000000 0.000000 5.502373 15.589734 -39.245984 0.219414 0.000841 -0.000101 -23.736094 -18.868418 -108.440140 -0.000000 0.205798 -0.025269 -0.068360 -0.000334 -0.556396 -0.137807 -0.000000 0.000000 0.185965 -0.589113 38.802301 -0.215908 0.000841 -0.000101 -27.371780 20.082529 112.551825 0.000000 0.000000 0.000000 -0.000015 -0.000000 -0.266489 -0.000000 0.000000 0.000000 0.000000 0.000000 -0.266489 0.089910 -0.000418 0.000000 8.733251 -0.031206 -6.408529 0.019079 -0.364056 0.000000 -6.249330 -0.737810 7.453756 0.016153 -0.308217 0.000000 0.816765 -0.481838 -0.278288 -0.089910 0.000418 -0.000000 6.744145 -0.004653 5.920933 -0.019310 -0.368456 0.000000 -5.446770 0.585450 -6.260945 -0.015935 -0.304053 0.000000 -1.311430 6.535705 2.721500 
-0.007684 0.013945 0.019590 0.000000 -5.950047 0.000001 -0.000000 -0.000000 0.000000 1.313583 -0.000143 0.003477 10.001346 -1.141884 0.140228 0.000000 0.205797 -0.025269 16.242951 -18.275389 6.644535 -0.000000 0.159761 -0.002789 -3.690889 -0.000004 -0.000005 0.000000 0.205797 -0.025269 -0.064130 -0.000293 -0.521944 0.137807 0.000000 -0.000000 5.425690 15.501359 -38.949652 0.219414 0.000841 -0.000101 -23.127727 -18.464365 -108.327640 0.000000 0.205797 -0.025269 -0.070793 -0.000353 -0.576368 -0.137807 0.000000 -0.000000 -0.408152 1.081505 39.972798 -0.215908 0.000841 -0.000101 -28.442433 21.091421 111.734498 0.000000 0.000000 0.000000 -0.000036 -0.000000 -0.217794 0.000000 0.000000 0.000000 0.000000 -0.000000 -0.217832 0.089911 -0.000342 -0.000000 8.735459 -0.029668 -6.388237 0.019079 -0.364056 0.000000 -6.261496 -0.738226 7.435218 0.016153 -0.308217 0.000000 0.726902 -0.455199 -0.258960 -0.089911 0.000342 0.000000 6.749580 -0.004688 5.920395 -0.019310 -0.368456 0.000000 -5.448834 0.584584 -6.238326 -0.015935 -0.304053 0.000000 -1.415448 6.665708 2.775514 
-0.007752 0.013504 0.019563 0.000000 -5.922706 0.000001 -0.000000 -0.000000 -0.000000 1.254350 -0.002450 0.059114 10.002264 -1.471381 0.180703 0.000000 0.205797 -0.025269 16.113507 -18.230468 6.559300 0.000000 0.159761 -0.002789 -3.480073 0.000018 -0.000003 0.000000 0.205797 -0.025269 -0.063825 -0.000287 -0.519846 0.137807 -0.000000 -0.000000 5.332207 15.359883 -38.662006 0.219414 0.000841 -0.000101 -22.578580 -18.054084 -108.378115 0.000000 0.205797 -0.025269 -0.070533 -0.000349 -0.574260 -0.137806 0.000000 -0.000000 -0.600644 1.597471 40.407942 -0.215908 0.000841 -0.000101 -29.809947 21.949621 111.950140 -0.000000 0.000000 0.000000 -0.000035 -0.000000 -0.179052 -0.000000 0.000000 0.000000 0.000000 0.000000 -0.179014 0.089911 -0.000281 0.000000 8.743749 -0.027744 -6.362854 0.019079 -0.364056 0.000000 -6.286618 -0.739817 7.410468 0.016153 -0.308217 0.000000 0.572595 -0.431822 -0.234930 -0.089911 0.000281 0.000000 6.759740 -0.004817 5.918248 -0.019310 -0.368456 0.000000 -5.466017 0.585039 -6.209542 -0.015935 -0.304053 0.000000 -1.552574 6.829352 2.843754 
-0.007844 0.012901 0.019513 0.000000 -5.878572 0.000001 0.000000 -0.000000 -0.000000 1.233379 -0.005195 0.124845 10.003519 -1.814491 0.222864 0.000000 0.205797 -0.025269 15.808833 -18.515538 6.531896 -0.000000 0.159760 -0.002789 -3.140045 0.000002 -0.000003 -0.000000 0.205797 -0.025269 -0.061966 -0.000273 -0.504332 0.137807 -0.000000 0.000000 5.271962 15.268936 -38.472748 0.219414 0.000841 -0.000101 -22.167121 -17.700736 -108.578295 -0.000000 0.205797 -0.025269 -0.068613 -0.000333 -0.558709 -0.137806 -0.000000 0.000000 -0.579124 1.531269 40.570917 -0.215908 0.000841 -0.000101 -30.689133 22.337147 112.518351 0.000000 0.000000 0.000000 -0.000009 -0.000000 -0.173886 0.000000 0.000000 0.000000 0.000000 0.000000 -0.173848 0.089911 -0.000273 0.000000 8.761263 -0.026946 -6.351711 0.019079 -0.364056 0.000000 -6.332885 -0.745425 7.413356 0.016153 -0.308217 0.000000 0.413982 -0.436653 -0.222140 -0.089911 0.000273 -0.000000 6.772136 -0.004873 5.917540 -0.019310 -0.368456 0.000000 -5.493037 0.586492 -6.179781 -0.015935 -0.304053 0.000000 -1.656676 6.948653 2.893718 
-0.007959 0.012344 0.019433 0.000000 -5.817645 0.000001 0.000000 0.000000 0.000000 1.159565 -0.008711 0.206036 10.005089 -2.181910 0.268034 0.000000 0.205797 -0.025269 15.616585 -18.859617 6.466910 0.000000 0.159761 -0.002789 -2.887197 -0.000006 0.000002 0.000000 0.205797 -0.025269 -0.059894 -0.000249 -0.487496 0.137807 -0.000000 0.000000 5.210069 15.073425 -38.517250 0.219414 0.000841 -0.000101 -21.879415 -17.486784 -108.606107 -0.000000 0.205797 -0.025269 -0.066550 -0.000313 -0.541871 -0.137807 -0.000000 -0.000000 -0.581116 1.519503 40.974452 -0.215908 0.000841 -0.000101 -30.715736 22.249261 112.799864 0.000000 0.000000 0.000000 0.000058 0.000000 -0.204196 0.000000 0.000000 0.000000 0.000000 -0.000000 -0.204196 0.089911 -0.000321 0.000000 8.780494 -0.027939 -6.363872 0.019079 -0.364056 0.000000 -6.388627 -0.754523 7.457812 0.016153 -0.308217 0.000000 0.291161 -0.492478 -0.233953 -0.089911 0.000320 -0.000000 6.781265 -0.004289 5.927516 -0.019310 -0.368456 0.000000 -5.513080 0.587692 -6.160453 -0.015935 -0.304053 0.000000 -1.687022 6.979164 2.906444 
